<mxfile host="app.diagrams.net" modified="2024-02-28T09:05:55.126Z" agent="Mozilla/5.0 (Windows NT 10.0; Win64; x64) AppleWebKit/537.36 (KHTML, like Gecko) Chrome/121.0.0.0 Safari/537.36" version="23.1.7" etag="xTEm2R_1I9d7Xpg_o0KV" type="github">
  <diagram name="第 1 页" id="ZbHDWjEK0bLdoS0rfkP7">
    <mxGraphModel>
      <root>
        <mxCell id="0" />
        <mxCell id="1" parent="0" />
      </root>
    </mxGraphModel>
  </diagram>
</mxfile>
